<?xml version="1.0" encoding="UTF-8"?>
<svg version="1.1" xmlns="http://www.w3.org/2000/svg" width="512" height="512">
<path d="M0 0 C1.02631039 -0.00453111 2.05262078 -0.00906223 3.11003149 -0.01373065 C6.52419654 -0.02631753 9.9382009 -0.02475796 13.35238647 -0.02310181 C15.81063032 -0.02909068 18.2688723 -0.03589705 20.72711182 -0.04345703 C26.6975292 -0.05926008 32.66788421 -0.06556392 38.63831671 -0.06668179 C43.49683285 -0.06763521 48.35533606 -0.07176015 53.21384811 -0.07808304 C67.01877975 -0.09568046 80.82368039 -0.10492443 94.62862332 -0.10342209 C95.3714886 -0.10334218 96.11435388 -0.10326227 96.87973022 -0.10317993 C97.99540464 -0.10305729 97.99540464 -0.10305729 99.13361792 -0.10293217 C111.17583228 -0.10212002 123.21792134 -0.12124367 135.26009949 -0.14945666 C147.65447823 -0.1782633 160.04879602 -0.19199265 172.44320905 -0.19026911 C179.38980175 -0.18960782 186.33626313 -0.19498476 193.28282547 -0.21662521 C199.82137409 -0.23686557 206.35969428 -0.23608426 212.89827347 -0.22159195 C215.28782558 -0.21951131 217.6773953 -0.22415988 220.06691742 -0.23631287 C240.07249374 -0.33140882 259.47118066 0.82244282 274.88998413 15.19393921 C275.40512196 15.67324229 275.92025978 16.15254538 276.45100784 16.6463728 C286.27008037 25.82906684 295.76699507 35.35215833 305.30258179 44.82675171 C307.82547028 47.33179015 310.35662313 49.8280075 312.89535522 52.31698608 C316.00269737 55.36358004 319.09453509 58.42516119 322.17646027 61.4974575 C323.33690159 62.64945222 324.50238576 63.79639432 325.67339325 64.93764687 C333.35994347 72.4390426 340.32891947 80.13546403 344.33822632 90.26742554 C344.69664392 91.15848968 345.05506151 92.04955381 345.42434025 92.9676199 C349.80719266 106.17733771 348.90165076 120.13404046 348.84646595 133.88625801 C348.83526314 137.77789638 348.84732908 141.66947687 348.85630798 145.56111145 C348.87017849 153.1651912 348.86273087 160.76910391 348.8476324 168.37317558 C348.83070032 177.24094375 348.8339915 186.10867114 348.83772648 194.97645048 C348.84359346 210.80386313 348.82947787 226.63119601 348.80477905 242.45858765 C348.78084952 257.79488106 348.77378104 273.13106797 348.78427124 288.46737671 C348.79569448 305.19755871 348.79759409 321.92769156 348.78317314 338.65787297 C348.78164741 340.4434934 348.78012705 342.22911383 348.77861214 344.01473427 C348.77785432 344.89313619 348.77709651 345.77153812 348.77631573 346.67655828 C348.77158472 352.84919581 348.77341583 359.02181129 348.77767754 365.19444847 C348.78261682 372.72048682 348.7765634 380.24642473 348.75678324 387.77244016 C348.74694909 391.60790888 348.74176398 395.44322505 348.74967575 399.27870178 C348.75809362 403.44490128 348.74308103 407.61069811 348.72590637 411.77687073 C348.73492144 413.57674707 348.73492144 413.57674707 348.74411863 415.41298455 C348.60635352 433.84701078 341.73328097 447.97660465 329.38900757 461.38461304 C324.96649008 465.71446826 320.10451718 468.74432102 314.65072632 471.57992554 C314.04035522 471.90557495 313.42998413 472.23122437 312.80111694 472.56674194 C302.35195192 477.69793304 290.75577596 478.71663462 279.28378296 478.64837646 C278.04846612 478.65305644 276.81314928 478.65773641 275.5403986 478.6625582 C272.15560253 478.67236286 268.77131515 478.66895851 265.38655138 478.65959954 C261.71913039 478.65275513 258.05175087 478.66331674 254.38433838 478.67153931 C247.21729985 478.68482184 240.05035601 478.68202349 232.88331389 478.67330138 C227.0542408 478.66650354 221.22519409 478.66561716 215.39611816 478.66887283 C214.56389805 478.66933253 213.73167793 478.66979223 212.87423903 478.67026586 C211.18316673 478.67122512 209.49209445 478.67219776 207.80102217 478.67318363 C191.97434459 478.68172147 176.14771929 478.67192868 160.32105029 478.65578254 C146.76522603 478.64238082 133.20947887 478.64470936 119.65365601 478.65853882 C103.88043545 478.67462309 88.10726062 478.68089765 72.33403301 478.67170203 C70.64946684 478.67074646 68.96490066 478.66980335 67.28033447 478.66887283 C66.45167297 478.66841001 65.62301147 478.66794718 64.76923901 478.66747033 C58.95271548 478.66488897 53.13622115 478.66923294 47.31970215 478.67631149 C40.22335916 478.68475841 33.12711561 478.68237969 26.03078389 478.66646926 C22.41582093 478.65862922 18.80102329 478.65542125 15.18606186 478.66541672 C11.25483931 478.6761216 7.32388264 478.66326978 3.39266968 478.64837646 C1.70556428 478.65841471 1.70556428 478.65841471 -0.01562405 478.66865575 C-10.94589903 478.58883118 -22.01840383 476.89282912 -31.78677368 471.76742554 C-32.44927124 471.42558228 -33.1117688 471.08373901 -33.79434204 470.73153687 C-48.34703091 462.83050446 -58.08565906 449.76359426 -63.66177368 434.26742554 C-65.92138385 426.21924834 -65.94574635 418.45735002 -65.92247009 410.14332581 C-65.92549381 408.609683 -65.92938439 407.0760417 -65.93406266 405.54240304 C-65.9443231 401.34449293 -65.94216582 397.1466684 -65.93788207 392.94875133 C-65.93541128 388.41488598 -65.94443341 383.88104106 -65.95191956 379.34718323 C-65.96465898 370.47097864 -65.96646117 361.59480432 -65.96411929 352.71859213 C-65.96233505 345.50208669 -65.96408806 338.28559042 -65.96834373 331.06908607 C-65.96893892 330.04133578 -65.96953411 329.01358548 -65.97014734 327.95469123 C-65.97135911 325.86668981 -65.97257325 323.7786884 -65.97378971 321.69068698 C-65.98466244 302.11572794 -65.98250408 282.54078614 -65.97640487 262.96582613 C-65.97123654 245.0686716 -65.98248942 227.1715715 -66.00150309 209.27442773 C-66.02088799 190.88651793 -66.0291363 172.49863387 -66.02537984 154.11071378 C-66.02346871 143.79178502 -66.02594672 133.47290258 -66.04009438 123.15398216 C-66.05201747 114.36885049 -66.05340266 105.58379367 -66.04130421 96.79866096 C-66.03542193 92.31919871 -66.03429804 87.8398733 -66.04630661 83.36042023 C-66.05718697 79.25397549 -66.05403659 75.14778149 -66.04004493 71.04134838 C-66.0374039 69.56160222 -66.03974573 68.08183627 -66.04778079 66.60210957 C-66.14260492 47.82524163 -60.94329341 32.00366204 -47.93887329 18.27890015 C-34.9523544 5.32796685 -17.96783266 -0.05917217 0 0 Z M-29.66177368 43.26742554 C-34.04540759 49.57582744 -35.78358777 54.78327889 -35.79599476 62.44764137 C-35.8004526 63.72436136 -35.80491045 65.00108135 -35.80950338 66.31648982 C-35.80941408 67.73630246 -35.80922423 69.15611511 -35.8089447 70.57592773 C-35.81224419 72.08193093 -35.81596993 73.58793324 -35.82008618 75.09393442 C-35.83010468 79.23856824 -35.83382273 83.38318758 -35.83647549 87.52783179 C-35.84037898 91.99562174 -35.84995728 96.46340023 -35.85868835 100.93118286 C-35.87845134 111.72387087 -35.88851869 122.51655981 -35.89741614 133.30926138 C-35.90179925 138.39156281 -35.907166 143.47386319 -35.91240501 148.55616379 C-35.92941701 165.45052436 -35.9439113 182.34488427 -35.95115376 199.23925209 C-35.95306365 203.62348049 -35.95498398 208.00770888 -35.9569397 212.39193726 C-35.95742344 213.48161715 -35.95790718 214.57129705 -35.95840558 215.69399755 C-35.96670634 233.34710379 -35.99204417 251.00014228 -36.02452037 268.65321894 C-36.0575899 286.77653411 -36.07560242 304.89981484 -36.078798 323.02316034 C-36.08096317 333.19904238 -36.08971299 343.37482561 -36.11525917 353.55067825 C-36.13696468 362.21668778 -36.1450173 370.88257451 -36.13529239 379.54860814 C-36.13074729 383.96910247 -36.13264612 388.38934342 -36.15205383 392.80980301 C-36.16968331 396.86027019 -36.16868969 400.91029907 -36.15315654 404.96077089 C-36.15078013 406.4224669 -36.15510579 407.88419324 -36.16698519 409.34584291 C-36.25496407 420.89017772 -34.77018461 429.85751119 -26.65005493 438.44711304 C-17.26630857 447.0381264 -8.87137372 448.56846695 3.49514771 448.53485107 C5.33007589 448.54164774 5.33007589 448.54164774 7.20207334 448.54858172 C10.58556394 448.55903219 13.96884153 448.56055496 17.35233307 448.55819297 C21.00618503 448.55778401 24.66000555 448.5688315 28.31384277 448.57830811 C35.46810867 448.5949022 42.6223416 448.60041694 49.77662513 448.60153286 C55.59396995 448.60248413 61.41130393 448.60659834 67.22864532 448.61293411 C83.73283002 448.63054247 100.23698874 448.63977366 116.74118289 448.63827316 C118.07505923 448.6381533 118.07505923 448.6381533 119.43588257 448.63803101 C120.32622307 448.63794924 121.21656358 448.63786748 122.1338841 448.63778324 C136.5593398 448.63697054 150.98469103 448.65610527 165.41011652 448.68430774 C180.23277135 448.71305744 195.05537526 448.72684687 209.87805867 448.72512019 C218.19554256 448.72445699 226.51291694 448.72991846 234.83037567 448.75147629 C241.91271268 448.7697156 248.99489055 448.77401295 256.07724091 448.76045744 C259.68778882 448.75394148 263.29803165 448.75376039 266.90855026 448.77116394 C270.83029699 448.78987252 274.75160175 448.77730419 278.67337036 448.76190186 C279.80383876 448.77218898 280.93430715 448.78247611 282.09903216 448.79307497 C293.46004667 448.69473726 301.96744537 445.61560639 310.17025757 437.71273804 C315.47986029 431.72388884 318.46495393 425.53361892 318.46127415 417.51169205 C318.4632652 416.55276086 318.46525624 415.59382967 318.46730763 414.60583997 C318.46293837 413.02997369 318.46293837 413.02997369 318.45848083 411.42227173 C318.45933526 410.30404423 318.46018968 409.18581674 318.46107 408.03370357 C318.46272179 404.27337863 318.4572083 400.51309795 318.45175171 396.7527771 C318.45146975 394.0625651 318.45158368 391.37235583 318.45219421 388.68214417 C318.45271876 382.88343088 318.44957921 377.08472883 318.44395638 371.28601837 C318.43583197 362.90204019 318.43322519 354.51806744 318.43196838 346.13408574 C318.42977935 332.53188212 318.42312327 318.9296845 318.41366577 305.32748413 C318.40448783 292.11361725 318.39740886 278.89975199 318.39315796 265.68588257 C318.39289524 264.87148367 318.39263251 264.05708477 318.39236183 263.21800712 C318.3910568 259.13243821 318.38979309 255.0468693 318.38854992 250.96130037 C318.37818193 217.06333775 318.36056763 183.16538238 318.33822632 149.26742554 C317.40021179 149.2615593 316.46219727 149.25569305 315.49575806 149.24964905 C306.61078172 149.19217693 297.7260444 149.11928986 288.84131241 149.03171062 C284.27470958 148.98718097 279.7081924 148.94788761 275.14144897 148.92098999 C270.72570838 148.89478194 266.31030052 148.85425906 261.89476776 148.80423927 C260.21891197 148.78768793 258.54299878 148.77610123 256.86707306 148.76981163 C240.53096184 148.70236205 226.03643194 146.69076919 213.52572632 135.14242554 C205.20079529 126.31024065 201.05489393 115.07588495 201.01937866 103.03720093 C201.00431023 101.85060883 201.00431023 101.85060883 200.98893738 100.64004517 C200.95826541 98.0483975 200.94111511 95.45685237 200.92416382 92.86508179 C200.90543928 91.05903755 200.88586491 89.25300195 200.86547852 87.44697571 C200.81428713 82.71078595 200.77459208 77.97456787 200.73733521 73.23825073 C200.69721386 68.39829578 200.6461587 63.55845732 200.59603882 58.71859741 C200.49943349 49.23495545 200.4149797 39.7512475 200.33822632 30.26742554 C173.27802307 30.17391427 146.21784409 30.10341295 119.15751171 30.06017685 C106.59245077 30.03956648 94.02749033 30.01147488 81.4624939 29.96566772 C70.50869103 29.92575345 59.55496096 29.89998164 48.60108739 29.89107156 C42.80303484 29.88586464 37.00519052 29.87365794 31.20720482 29.84450531 C25.74483016 29.81726385 20.28274863 29.80899824 14.8203125 29.81499481 C12.82050799 29.81389848 10.82069321 29.80599692 8.82094765 29.79060364 C-6.90599171 29.67552804 -18.63230522 30.82698003 -29.66177368 43.26742554 Z M229.33822632 30.26742554 C229.29180318 39.66453186 229.2563065 49.06159845 229.23460197 58.45879459 C229.22418278 62.82269923 229.21005773 67.18652517 229.18734741 71.55038452 C229.16555242 75.76493029 229.15364368 79.97940054 229.14847183 84.19399834 C229.144788 85.7986819 229.13759447 87.40336152 229.1267662 89.00801277 C229.11216263 91.26262335 229.11025205 93.51692535 229.11117554 95.77157593 C229.10673431 97.0528688 229.10229309 98.33416168 229.09771729 99.65428162 C229.56266647 106.63916822 231.30230963 111.34341811 236.33822632 116.26742554 C241.45174866 118.90847983 245.17795148 119.63754497 251.01766968 119.60800171 C251.75020966 119.60843979 252.48274963 119.60887787 253.23748779 119.60932922 C255.63462927 119.60725591 258.03105231 119.5839952 260.42807007 119.56039429 C262.09958006 119.55479312 263.771095 119.55052548 265.44261169 119.54753113 C269.8238912 119.53612331 274.20486832 119.50669155 278.58602905 119.47341919 C283.06393342 119.44263029 287.54188704 119.42900701 292.01986694 119.41390991 C300.79279155 119.38181757 309.56547123 119.33067095 318.33822632 119.26742554 C318.38069762 117.36527739 318.41084835 115.46285182 318.43588257 113.56039429 C318.45401001 112.50102661 318.47213745 111.44165894 318.49081421 110.35018921 C317.82328322 96.86392712 304.76591438 86.37145881 295.84994507 77.44320679 C294.74033361 76.3271501 293.63086473 75.21095165 292.52153015 74.09461975 C290.20784814 71.76904025 287.89014985 69.44755111 285.56991577 67.12850952 C282.61801173 64.17680893 279.6801314 61.2115645 276.74557781 58.24262714 C274.46259461 55.93726576 272.17043509 53.64119454 269.87571144 51.34752464 C268.78937767 50.25885372 267.70623086 49.16699177 266.62656212 48.07171059 C254.13834283 35.31554039 254.13834283 35.31554039 237.63290405 30.20639038 C236.15479248 30.21726685 236.15479248 30.21726685 234.64682007 30.22836304 C233.65351685 30.23400269 232.66021362 30.23964233 231.6368103 30.24545288 C230.49901123 30.25632935 230.49901123 30.25632935 229.33822632 30.26742554 Z " fill="#000000" transform="translate(114.66177368164063,16.732574462890625)"/>
<path d="M0 0 C11.91108054 10.00237118 20.04183292 23.52521105 22.34765625 39.00390625 C23.59106657 56.21968568 21.0329418 70.37485545 11.34765625 85.00390625 C10.90550781 85.68839844 10.46335937 86.37289062 10.0078125 87.078125 C9.14168309 88.40043645 8.24929448 89.70554719 7.34765625 91.00390625 C8.07339844 91.25011719 8.79914063 91.49632812 9.546875 91.75 C14.66083821 94.03951491 18.36042998 98.14490625 22.34765625 102.00390625 C23.40919922 103.009375 23.40919922 103.009375 24.4921875 104.03515625 C37.05544437 116.92054792 41.52102442 133.69531382 41.78515625 151.19140625 C41.80771484 152.21363281 41.83027344 153.23585938 41.85351562 154.2890625 C41.82515963 163.02271003 39.66887381 170.68268869 33.34765625 177.00390625 C27.72785417 181.28103586 22.44027054 183.05366153 15.53515625 184.19140625 C14.72884766 184.34287109 13.92253906 184.49433594 13.09179688 184.65039062 C-4.30388177 187.74969653 -21.64348895 188.37389949 -39.27734375 188.31640625 C-40.92895004 188.31466904 -40.92895004 188.31466904 -42.61392212 188.31289673 C-57.65679127 188.28159017 -72.47976597 188.04209843 -87.33349609 185.4140625 C-89.59790388 185.01353554 -91.86470339 184.67546181 -94.140625 184.34765625 C-103.42712315 182.90304119 -110.73913851 180.1249978 -116.58984375 172.50390625 C-123.45926761 162.45829716 -122.00942582 146.04092084 -120 134.55078125 C-115.52728421 116.19920919 -104.54594164 101.04588308 -88.65234375 91.00390625 C-87.99234375 91.00390625 -87.33234375 91.00390625 -86.65234375 91.00390625 C-87.255625 90.10929687 -87.85890625 89.2146875 -88.48046875 88.29296875 C-96.82034947 75.75094399 -102.07498672 63.99970523 -101.96484375 48.69140625 C-101.9592041 47.86181396 -101.95356445 47.03222168 -101.94775391 46.17749023 C-101.59752274 28.35557859 -93.74215506 13.65848171 -81.08984375 1.37890625 C-75.20614168 -3.73580133 -68.76531485 -6.98958019 -61.65234375 -9.99609375 C-60.80542969 -10.35832031 -59.95851562 -10.72054687 -59.0859375 -11.09375 C-39.04549197 -18.00979461 -16.39684899 -12.33989666 0 0 Z M-63.625 26.6953125 C-66.25669784 29.69210137 -67.98002805 32.38055556 -69.65234375 36.00390625 C-70.18214844 37.11958984 -70.18214844 37.11958984 -70.72265625 38.2578125 C-73.41049371 46.1970971 -72.53460422 56.27738589 -68.9765625 63.79296875 C-64.20132985 71.76577607 -57.96732265 76.85747246 -49.40234375 80.31640625 C-39.78631352 82.07934512 -30.75366293 81.75621755 -22.30859375 76.5625 C-14.9593248 71.28327514 -10.0614919 64.76542709 -7.65234375 56.00390625 C-6.30350264 44.5646961 -8.24587797 35.9604776 -15.328125 26.84765625 C-21.64164603 19.99712308 -30.21664406 16.31246719 -39.50390625 15.8671875 C-49.21031226 16.28868156 -56.77771424 19.9368084 -63.625 26.6953125 Z M-84.04296875 126.6875 C-90.07609949 135.37110809 -91.40712493 143.60469881 -90.65234375 154.00390625 C-63.65334902 160.75365493 -14.33493967 166.84520421 11.34765625 154.00390625 C12.22894175 141.86175052 10.03390706 132.92134664 2.03515625 123.56640625 C-7.02282692 114.23937407 -16.64846721 110.82546232 -29.51953125 110.5703125 C-32.00775379 110.54775941 -34.494618 110.54513411 -36.98291016 110.55786133 C-39.51547769 110.5663664 -42.04577933 110.5375444 -44.578125 110.50585938 C-60.74585048 110.43548692 -73.40222494 113.825867 -84.04296875 126.6875 Z " fill="#000000" transform="translate(295.65234375,191.99609375)"/>
</svg>
